<svg xmlns="http://www.w3.org/2000/svg" height="149.91" viewBox="0 0 178.07 149.908" width="178.07">
  <g fill="#FFFFFF"><path d="M174.02 0l-45.25.262-45.25.26-.27 24.377-.267 24.377-3.887-6.014C73.616 34.78 65.77 29.72 56.114 28.44c-8.009-1.063-15.257.31-21.502 4.07l-5.59 3.365V.021H.004l.258 56.75.26 56.75 11.5.29c14.78.372 16 .068 16-3.997v-3.168l2.945 2.822c1.62 1.553 5.333 3.677 8.25 4.721 10.415 3.727 24.985.769 33.533-6.807 1.777-1.574 4.814-5.535 6.75-8.802l3.522-5.942v9.569c0 6.865.386 9.888 1.365 10.7.982.816 13.942 1.061 46.25.874l44.885-.26.277-13.75.28-13.75h-61.056V68.054l26.75-.267 26.75-.266.279-12.25.281-12.25h-54.06v-17h59V-.001zm-171 3.022h23v18.53c0 21.562.305 22.207 7.424 15.646 5.38-4.96 10.75-6.546 20.143-5.95 14.463.92 23.629 9.355 28.547 26.273.96 3.3 1.782 5.325 1.83 4.5.077-1.333.195-1.333 1.057 0 .637.987.974-8.85.984-28.75l.015-30.25h86v19.971l-29.75.264-29.75.265v21l27.25.266 27.25.266V64.988l-27.25.268-27.25.265-.287 10.354c-.187 6.777.115 10.836.873 11.75.944 1.137 6.615 1.397 30.535 1.397h29.38v22h-87l-.016-16.75c-.01-11.184-.337-16.252-.985-15.25-.861 1.333-.98 1.333-1.068 0-.054-.825-.728 1.1-1.498 4.275-3.404 14.05-12.307 25.125-22.672 28.203-5.8 1.723-14.642 1.836-19.59.252-1.83-.585-5.496-3.015-8.146-5.398s-5.318-4.332-5.924-4.332c-.64 0-1.102 1.886-1.102 4.5v4.5h-22v-108zm40.01 45.337c-4.244-.034-8.452 1.465-11.26 4.396-4.289 4.477-5.754 9.285-5.754 18.867 0 13.885 2.867 20.147 10.5 22.938 10.582 3.869 19.887-2.454 22.561-15.33 2.259-10.88-.841-23.78-6.719-27.965-2.705-1.926-6.027-2.88-9.328-2.906zm.498 2.763c4.39.15 8.642 2.64 11.068 7.53 1.465 2.95 1.92 6.004 1.92 12.869 0 10.529-1.955 15.61-7.398 19.236-6.664 4.438-14.577 2.019-18.297-5.594-3.106-6.355-3.264-19.73-.305-25.63 2.713-5.408 7.438-8.238 12.133-8.41.293-.01.586-.011.879-.001zm65.112 66.661c-5.032-.083-10.224 1.768-12.63 5.602-.738 1.173-1.668 3.483-2.067 5.133-.544 2.247-.752 1.317-.828-3.705l-.102-6.706-10.924-.01-10.922-.01-1.799 7.63-1.799 7.628-1.89-7.664-1.89-7.664h-5.33c-2.932 0-5.578.404-5.884.899-.305.494 1.751 7.469 4.57 15.5l5.128 14.602H72.874l4.319-13.111 4.32-13.11.5 12.86.5 12.86 5.25.303 5.25.301.043-6.3.045-6.303 1.34 3.76c1.716 4.808 3.34 6.728 7.07 8.353 6.405 2.791 14.856.824 18.174-4.233 1.005-1.532 2.097-5.507 2.426-8.834l.595-6.046.157 6c.197 7.589 2.618 11.84 7.697 13.516 4.322 1.426 11.43.7 14.807-1.512 3.784-2.48 4.646-5.83 4.646-18.051v-11.453h-10v9.066c0 9.296-.984 12.934-3.5 12.934-2.518 0-3.5-3.642-3.5-12.986v-9.119l-5.25.303-5.25.303-.5 3.97-.5 3.97-1.207-2.673c-1.762-3.902-6.634-5.918-11.666-6.002zm-108.63.235v31h11v-5.5c0-5.445.03-5.5 3-5.5s3 .055 3 5.5v5.5h10.891c10.784 0 10.898-.025 11.52-2.5.495-1.973 1.26-2.5 3.633-2.5 2.286 0 3.234.598 3.957 2.5.855 2.25 1.502 2.5 6.474 2.5 3.783 0 5.509-.395 5.471-1.25-.03-.688-2.398-7.55-5.262-15.25l-5.205-14H37.775l-4.633 12.9-4.631 12.9-.28-13.15-.279-13.15H17.011v5c0 4.889-.067 5-3 5s-3-.111-3-5v-5h-11zm151.5.5l-.28 13.95c-.153 7.674-.056 14.537.218 15.25.316.824 2.319 1.3 5.476 1.3h4.977l.306-4.75.307-4.75 2.447 4.75 2.448 4.75h5.3c6.12 0 6.477-.776 3.26-7.08l-2.04-4 2.04-2.596c2.936-3.732 2.76-10.377-.37-14.02-2.367-2.754-2.614-2.805-13.25-2.805H151.51zm-66.5 1.367l2.75.316 2.75.317.277 13.25.28 13.25H85.01v-27.132zm-29.973.008l3.191.312c3.131.307 3.24.49 5.643 9.563 1.375 5.19 2.978 9.25 3.654 9.25.68 0 2.244-4.026 3.594-9.25 2.335-9.037 2.462-9.258 5.516-9.555l3.125-.305-4.625 13.55c-4.565 13.368-4.666 13.545-7.639 13.552-2.97.007-3.078-.18-7.736-13.555l-4.723-13.562zm-52.027.125h2.447c2.248 0 2.473.429 2.75 5.25l.303 5.25h11l.3-5.25c.278-4.821.503-5.25 2.75-5.25h2.45v27h-2.5c-2.363 0-2.5-.3-2.5-5.48 0-4.927-.24-5.542-2.363-6.075-1.3-.326-3.887-.447-5.75-.27-3.38.324-3.389.338-3.688 6.075-.279 5.354-.468 5.75-2.75 5.75H3.01v-27zm122 0h5.93l.285 10.213c.275 9.863.375 10.266 2.92 11.69 2.362 1.325 2.905 1.3 5.25-.235 2.53-1.659 2.615-2.036 2.615-11.691v-9.977h6.182l-.342 10.584c-.34 10.516-.36 10.603-3.606 13.5-2.544 2.271-4.201 2.906-7.5 2.875-9.224-.087-11.734-3.961-11.734-18.11v-8.849zm29 0l4.75.043c6.818.062 13.193 1.472 15.047 3.326 2.35 2.35 2.034 8.117-.598 10.918-2.708 2.883-2.743 4.37-.199 8.213 2.624 3.962 2.524 4.5-.83 4.5-2.42 0-3.171-.732-5.193-5.049-2.033-4.339-2.723-5.006-4.92-4.75-2.29.267-2.589.794-2.862 5.049-.275 4.288-.542 4.75-2.75 4.75h-2.445v-27zm-111.69.125c.296.002.623.035.996.072 2.413.243 3.243.989 4.238 3.803.681 1.925 2.842 7.887 4.801 13.25l3.563 9.75H52.98c-2.3 0-3.073-.543-3.564-2.5-.573-2.282-1.102-2.5-6.045-2.5-4.857 0-5.513.258-6.365 2.5-.668 1.755-1.704 2.5-3.477 2.5-1.389 0-2.525-.338-2.527-.75s2.091-6.512 4.654-13.553c4.06-11.154 4.593-12.59 6.664-12.572zm65.076.056c1.869-.077 3.864.32 5.9 1.286 8.535 4.05 8.941 19.775.623 24.076-6.297 3.256-14.67.464-16.783-5.598-3.558-10.209 2.163-19.43 10.26-19.764zm55.863 3.985c-1.176-.05-2.001.207-2.705.79-1.582 1.314-2.124 6.134-.836 7.423.392.392 2.755.579 5.25.416 4.462-.291 4.537-.353 4.537-3.795 0-3.205-.313-3.577-3.701-4.414-1.008-.25-1.84-.39-2.545-.42zm-55.875.834c-4.122 0-5.379 2.088-5.379 8.933 0 3.733.527 5.593 2 7.067 1.1 1.1 2.9 2 4 2 3.703 0 6-3.512 6-9.172 0-6.279-1.913-8.828-6.62-8.828zm57.193 2c1.911 0 2.488.45 2.24 1.75-.183.962-1.342 1.892-2.574 2.068-1.701.243-2.238-.178-2.238-1.75 0-1.556.637-2.068 2.572-2.068zm-56.494.191c.371.026.755.256 1.242.66 2.137 1.774 2.964 6.267 1.744 9.475-1.34 3.524-4.768 3.584-6.09.107-1.433-3.769-1.202-5.931.91-8.54.99-1.221 1.575-1.744 2.194-1.702zm-64.729.809c-1.597 0-3.35 3.958-3.35 7.564 0 2.04.489 2.436 3 2.436 2.267 0 3-.458 3-1.875 0-4.073-1.322-8.125-2.65-8.125z"/></g></svg>